<svg xmlns="http://www.w3.org/2000/svg" viewBox="0 0 202.54 202.54"><defs><style>.cls-1{fill:#2d00fb;}</style></defs><g id="Lag_2" data-name="Lag 2"><g id="Lag_1-2" data-name="Lag 1"><path class="cls-1" d="M101.27,0A101.27,101.27,0,1,0,202.54,101.27,101.27,101.27,0,0,0,101.27,0Zm9.43,65.1c3-1.42,7.3,3.13,9.22,6.31,4,6.57,4,17.3-.89,21.37-2,1.67-5.24,2.54-7.74,1C104.19,89.59,105.23,67.67,110.7,65.1ZM90,64.88c4.69,1.24,6.45,26.16.73,29.35-3,1.64-8-2.42-10-7.06C76.56,77.22,86.22,63.89,90,64.88Zm66.27,46.05a5.05,5.05,0,0,1-6.84,1.79l-1.57-1c0,.11,0,.21-.07.29-2.09,8.44-7.95,32-28.94,40.93a45,45,0,0,1-17.65,3.51A53.22,53.22,0,0,1,86,154.09c-24.09-7.78-36.3-36.2-37.4-49-.85.48-1.7,1-2.57,1.39a5.1,5.1,0,0,1-6.84-1.8c-1.3-2.22-.62-5.63,1.79-6.84a51.53,51.53,0,0,0,8.73-5.39c2.14-1.67,5-2.1,7.08,0,1.74,1.75,2.12,5.4,0,7.07-1.25,1-2.51,1.89-3.8,2.78,8.37,15.22,22.32,40.42,43,44.49a35.13,35.13,0,0,0,7,.74,30.67,30.67,0,0,0,9.83-1.58c11.14-3.74,17.47-13.74,20.87-19.11l.08-.13a62.21,62.21,0,0,0,4-7.44c.63-1.33,1.27-2.69,2.11-4.28a55.68,55.68,0,0,1,3.25-5.68c-.6-.26-1.21-.52-1.83-.74a5.1,5.1,0,0,1-3.49-6.15c.67-2.45,3.61-4.42,6.15-3.5a52.72,52.72,0,0,1,10.53,5.16A5.08,5.08,0,0,1,156.26,110.93Z"/></g></g></svg>